<svg width="200" height="39" viewBox="0 0 200 39" fill="none" xmlns="http://www.w3.org/2000/svg">
<path fill-rule="evenodd" clip-rule="evenodd" d="M85.1055 0.0231357C79.4249 -0.108983 73.6961 0.344502 67.9986 0.880803C67.9014 0.7088 67.7376 0.573522 67.4915 0.487513C63.2361 -0.0229272 58.9351 -0.0849389 54.623 0.0843488C52.6557 -0.005885 50.6817 -0.0192885 48.7042 0.0231352C43.0235 -0.108985 37.2946 0.344518 31.5971 0.880832C31.4998 0.708815 31.336 0.573527 31.0899 0.487513C22.2525 -0.572539 13.2186 0.301416 4.29587 1.16462C2.91532 1.29818 1.53744 1.43148 0.163348 1.55732C0.11387 2.52294 0.058122 3.47167 0 4.42209C0.0204617 4.43768 0.0413102 4.45173 0.0621544 4.46578C0.096268 4.48877 0.13037 4.51176 0.162748 4.54146C0.311085 4.54146 0.256303 4.9196 0.184365 5.41616C0.099322 6.00318 -0.00969718 6.7557 0.164531 7.24465H1.45365C1.61452 7.91996 1.53406 8.59443 1.45355 9.26931C1.37296 9.9449 1.29232 10.6209 1.45365 11.2986C1.63191 12.0474 2.10485 12.106 2.54682 12.1608C2.90444 12.2052 3.24178 12.247 3.38629 12.6499C4.35379 13.5508 2.74187 14.0012 1.77675 14.0012C1.93755 14.4517 1.77645 14.4517 1.57515 14.4517C1.37384 14.4517 1.13234 14.4517 1.13234 14.9021C1.13234 16.6622 1.13562 18.4223 2.3383 19.7612C2.3203 19.7662 2.30234 19.7696 2.28437 19.7729L2.28434 19.7729C2.25412 19.7785 2.2239 19.784 2.19344 19.7978C2.19344 20.6987 2.19344 21.1491 1.87124 21.5996C2.05752 21.5996 2.27182 21.5618 2.49716 21.519C2.4557 21.86 2.43047 22.2073 2.42175 22.5567C2.9839 22.5567 3.55439 22.5567 4.12756 22.5483V22.9492C3.80509 23.1744 3.40276 23.0618 3.0003 22.9492C2.59776 22.8366 2.19511 22.7239 1.87213 22.9492V24.7509C1.87213 25.2014 1.54993 25.2014 1.22803 25.2014H2.51653V27.0031C2.51653 27.4536 2.19434 27.4536 1.87184 27.4536C1.87184 27.7727 1.8314 28.0918 1.7935 28.3909C1.72442 28.9362 1.66377 29.4149 1.87184 29.7057H2.83844C2.32596 29.8895 1.85946 30.3854 1.51032 31.1175C1.16118 31.8497 0.948633 32.7777 0.90521 33.7597C1.06651 33.5344 1.14714 33.7598 1.22772 33.9851C1.30825 34.2103 1.38873 34.4353 1.54963 34.2101C0.583317 35.5614 -0.383609 37.3632 0.90521 37.8136C8.76646 38.7566 16.7832 38.1692 24.739 37.4204C24.8363 37.5924 25.0002 37.7276 25.2463 37.8136C28.8425 38.245 32.4713 38.3561 36.1119 38.278C38.1541 38.3255 40.2027 38.2973 42.2537 38.2168C48.5159 38.504 54.8472 38.0127 61.1403 37.4204C61.2376 37.5924 61.4015 37.7276 61.6475 37.8136C65.2438 38.245 68.8726 38.3561 72.5132 38.278C75.9242 38.3573 79.3525 38.2255 82.7811 37.9914C94.6774 38.584 106.744 38.24 118.769 37.6824C118.884 37.734 119.02 37.778 119.177 37.8136C125 38.2657 130.878 38.366 136.774 38.2655C139.641 38.3102 142.515 38.3111 145.394 38.278C149.744 38.3322 154.109 38.2879 158.48 38.1797C170.04 38.5968 181.762 37.8629 193.363 37.1366L193.363 37.1366L193.364 37.1365L193.365 37.1364L193.367 37.1363L193.368 37.1363L193.369 37.1362L193.37 37.1361L193.372 37.136L193.373 37.1359L193.374 37.1359C195.504 37.0025 197.629 36.8695 199.748 36.7438C199.824 35.7793 199.911 34.8295 200 33.8802C199.97 33.8653 199.939 33.8519 199.908 33.8385C199.854 33.8149 199.8 33.7913 199.749 33.7597C199.521 33.7597 199.606 33.3823 199.717 32.8865C199.849 32.2991 200.019 31.5456 199.749 31.0571H197.757C197.509 30.3816 197.633 29.7062 197.758 29.0307C197.882 28.3548 198.007 27.679 197.757 27.0031C197.482 26.2566 196.752 26.1974 196.069 26.1421C195.516 26.0973 194.994 26.055 194.771 25.6518C193.277 24.7509 195.767 24.3005 197.26 24.3005C197.012 23.8501 197.26 23.8501 197.571 23.8501C197.883 23.8501 198.256 23.8501 198.256 23.3996C198.256 21.6395 198.25 19.8806 196.393 18.5411C196.422 18.5354 196.451 18.5319 196.48 18.5284C196.525 18.5229 196.571 18.5175 196.617 18.5034C196.617 17.6025 196.617 17.1521 197.115 16.7016C196.827 16.7016 196.496 16.7404 196.149 16.7821C196.212 16.4481 196.252 16.0994 196.266 15.7455C195.397 15.7455 194.516 15.7455 193.63 15.7529V15.352C194.128 15.1268 194.751 15.2394 195.373 15.352C195.995 15.4646 196.617 15.5772 197.115 15.352V13.5502C197.115 13.0998 197.613 13.0998 198.11 13.0998H196.12V11.298C196.12 10.8476 196.617 10.8476 197.115 10.8476C197.115 10.5285 197.178 10.2093 197.236 9.91023C197.343 9.36499 197.437 8.88628 197.115 8.59541H195.621C197.613 8.14497 198.609 5.89278 198.609 4.54146C198.359 4.76675 198.235 4.54133 198.11 4.31605C197.986 4.09096 197.862 3.866 197.613 4.09085C199.106 2.73956 200.599 0.937932 198.609 0.487513C192.233 -0.00743641 185.791 -0.0807623 179.332 0.0695809C175.868 -0.00724149 172.393 -0.0168566 168.912 0.0231408C165.241 -0.0225894 161.56 0.00182472 157.874 0.0755401C150.605 -0.127935 143.278 0.103691 135.961 0.483433C122.868 -0.353729 109.544 0.025137 96.2761 0.648546C96.193 0.583959 96.092 0.529785 95.971 0.487513C92.3748 0.0561426 88.7461 -0.0549667 85.1055 0.0231357Z" fill="#C10010"/>
</svg>
